<?xml version="1.0" encoding="utf-8"?>
<!-- Generator: Adobe Illustrator 18.1.1, SVG Export Plug-In . SVG Version: 6.00 Build 0)  -->
<!DOCTYPE svg PUBLIC "-//W3C//DTD SVG 1.1//EN" "http://www.w3.org/Graphics/SVG/1.1/DTD/svg11.dtd">
<svg version="1.1" id="Ebene_1" xmlns="http://www.w3.org/2000/svg" xmlns:xlink="http://www.w3.org/1999/xlink" x="0px" y="0px"
	 viewBox="0 0 222.5 93.5" enable-background="new 0 0 222.5 93.5" xml:space="preserve">
<g>
	<path fill="#FFFFFF" d="M202.4,33.2c0-12.3-1.4-14.9-7.7-14.9c-7.6,0-8.3,5.4-8.3,27.5c0,25.1,0.8,30.5,8.7,30.5
		c7,0,7.8-5.8,7.9-18.9l18.4,0v1.4c0,18.2-4.9,31.8-28.5,31.8c-24.4,0-26.3-19-26.3-44.4c0-21.6,1.1-43.3,28.1-43.3
		c16.8,0,26,7.6,26,27.4l0,2.9L202.4,33.2"/>
	<path fill="#FFFFFF" d="M135.9,4.6h-25.8l-20,84.8H108l4.2-16.2h22.1l4.5,16.2h17.9L135.9,4.6 M130.7,56.9h-15l7.4-32.4h0.2
		L130.7,56.9z"/>
	<polyline fill="#FFFFFF" points="26.9,4.6 38.2,51.6 38.4,51.6 49.7,4.6 75.5,4.6 75.5,89.5 57.3,89.5 57.3,41.8 57.1,41.8 
		44.8,89.5 31.8,89.5 19.5,41.8 19.3,41.8 19.3,89.5 1.1,89.5 1.1,4.6 26.9,4.6 	"/>
</g>
</svg>
